<svg xmlns="http://www.w3.org/2000/svg" width="31" height="38.501" viewBox="0 0 31 38.501"><defs><style>.a{fill:none;}.b,.c{fill:#a1a1a1;}.c{font-size:10px;font-family:Roboto-Regular, Roboto;}</style></defs><g transform="translate(-320 -770.499)"><g transform="translate(320 772)"><path class="a" d="M0,0H25V25H0Z"/><path class="b" d="M16.5,17.251a6.444,6.444,0,0,0,6.25-6.625A6.444,6.444,0,0,0,16.5,4a6.444,6.444,0,0,0-6.25,6.625A6.444,6.444,0,0,0,16.5,17.251Zm0,3.313c-4.172,0-12.5,2.219-12.5,6.625V30.5H29V27.189C29,22.783,20.672,20.563,16.5,20.563Z" transform="translate(-1 -5.501)"/></g><text class="c" transform="translate(322 796)"><tspan x="0" y="10">Conta</tspan></text></g></svg>