<svg xmlns="http://www.w3.org/2000/svg" width="42" height="39.421" viewBox="0 0 42 39.421"><defs><style>.a,.c{fill:#a1a1a1;}.a{font-size:10px;font-family:Roboto-Regular, Roboto;}.b{fill:none;}</style></defs><g transform="translate(-90.189 -772)"><text class="a" transform="translate(90.189 798.421)"><tspan x="0" y="10">Favoritos</tspan></text><g transform="translate(98.189 772)"><path class="b" d="M0,0H24.663V27.663H0Z"/><path class="c" d="M14.862,28,13,26.2C6.373,19.839,2,15.643,2,10.493A7.222,7.222,0,0,1,9.074,3a7.535,7.535,0,0,1,5.788,2.847A7.535,7.535,0,0,1,20.65,3a7.222,7.222,0,0,1,7.074,7.493c0,5.15-4.373,9.346-11,15.722Z" transform="translate(-1.695 -0.542)"/></g></g></svg>