<svg xmlns="http://www.w3.org/2000/svg" width="143" height="143" viewBox="0 0 143 143"><defs><style>.a{fill:#e98b16;}.b{fill:#fff;}</style></defs><g transform="translate(-116 -234)"><circle class="a" cx="71.5" cy="71.5" r="71.5" transform="translate(116 234)"/><g transform="translate(92 114.41)"><g transform="translate(42.397 136.874)"><path class="b" d="M73.116,47.549a1.558,1.558,0,0,1-.813-2.888A1.521,1.521,0,0,0,73.1,43.6c.278-1.479-1.123-3.729-1.636-4.4l-.432-.566.142-.7C72.934,29.5,67.962,17.418,67.911,17.3A26.756,26.756,0,0,1,65.355,7.124C64.141,17.3,60.389,21.361,60.225,21.535l-.122.115a15.375,15.375,0,0,0-5.159,15.13,1.557,1.557,0,1,1-3,.846A18.327,18.327,0,0,1,58,19.349c.371-.444,3.444-4.354,4.356-13.479l.028-.255.106-.234a5.333,5.333,0,0,1,4.557-3.214H68.91L68.582,4a22.238,22.238,0,0,0,2.175,12.035c.244.58,5.177,12.576,3.592,21.855.78,1.173,2.267,3.808,1.81,6.271a4.638,4.638,0,0,1-2.232,3.16A1.559,1.559,0,0,1,73.116,47.549Z" transform="translate(2.21 -0.874)"/><path class="b" d="M58.548,104.615l-.4-1.716c-3.176-13.493-15.053-21.91-15.173-21.993a1.557,1.557,0,1,1,1.781-2.555c.508.354,12.02,8.515,15.976,22.135l39.528-14.6c-1.832-6.412-10.4-33.959-25.781-46.476a1.558,1.558,0,1,1,1.967-2.416c18.184,14.8,26.843,48.063,27.2,49.472l.347,1.36Z" transform="translate(1.226 2.836)"/><path class="b" d="M28.63,89.65a12.388,12.388,0,0,1-4.48-.846C11.471,83.924,6.3,59.1,6.084,58.045a1.558,1.558,0,0,1,3.055-.618c.048.24,5.041,24.206,16.131,28.47,3.577,1.376,7.382.522,11.63-2.615.2-.134,13.645-9.052,20.99-15.99a1.558,1.558,0,0,1,2.139,2.265c-7.543,7.124-20.786,15.907-21.345,16.277C35.254,88.368,31.879,89.65,28.63,89.65Z" transform="translate(-2.676 4.939)"/><path class="b" d="M11.877,81.245a5.192,5.192,0,0,1-3.146-1.008c-5.765-4.251-3.156-21.188-2.839-23.1a1.557,1.557,0,0,1,3.073.506C7.891,64.155,7.381,75.372,10.58,77.73c.315.229,1.269.937,3.748-.3a1.558,1.558,0,1,1,1.393,2.787A8.62,8.62,0,0,1,11.877,81.245Z" transform="translate(-2.786 4.901)"/><path class="b" d="M16.677,82.745c-1.516,0-4.282-.563-6.294-4.219a1.557,1.557,0,0,1,2.729-1.5c1.634,2.964,3.7,2.631,3.938,2.581A1.569,1.569,0,0,1,18.9,80.781a1.543,1.543,0,0,1-1.126,1.854A5,5,0,0,1,16.677,82.745Z" transform="translate(-2.231 7.095)"/><path class="b" d="M13.2,60.667a4.25,4.25,0,0,1-2.139-.672c-1.285.683-3.032.2-5.518-1.75-2.312-1.815-2.639-3.658-2.51-4.887C3.4,49.83,7.881,47.548,8.39,47.3l.51-.249.552.137A9,9,0,0,1,15,51.915c1.7,2.726,1.727,4.208,1.691,4.6l-.023.313-.145.277C14.664,60.667,13.78,60.667,13.2,60.667Zm-.64-3.434a1.315,1.315,0,0,0,.191.136c.23-.333.521-.8.8-1.3a9.522,9.522,0,0,0-1.231-2.576l-.11-.206a6.213,6.213,0,0,0-2.971-2.9c-1.205.707-2.977,2.07-3.109,3.305-.066.649.382,1.357,1.336,2.107a10.5,10.5,0,0,0,1.778,1.179,1.853,1.853,0,0,1,.34-1.421l.467-.6,1.461-.022.738.722.177.409A1.71,1.71,0,0,1,12.555,57.233Z" transform="translate(-3.004 3.956)"/><path class="b" d="M9.191,52.309a1.557,1.557,0,0,1-.377-3.068c10.471-2.617,15.437-4.9,17-5.7.542-2.489,1.722-6.369,1.777-6.55l.11-.356.256-.268c9.735-10.17,29.263-11.116,30.092-11.15a1.588,1.588,0,0,1,1.62,1.489,1.557,1.557,0,0,1-1.488,1.623c-.188.008-18.752.915-27.718,9.931-.342,1.148-1.4,4.747-1.733,6.578l-.123.681-.59.364c-.2.122-4.969,3.014-18.441,6.382A1.566,1.566,0,0,1,9.191,52.309Z" transform="translate(-2.506 1.606)"/><path class="b" d="M43.485,32.4a1.558,1.558,0,0,1-1.394-2.254c3.368-6.733,2.133-10.685,2.12-10.724-1.553-5.1-.741-14.477-.708-14.872L43.82,1l2.39,2.642c4.329,4.785,4.378,9.428,4.378,9.623,0,3.377,1.191,4.727,1.244,4.783a19.708,19.708,0,0,1,4.6,9.663,1.557,1.557,0,0,1-3.087.409h0a16.753,16.753,0,0,0-3.8-7.957c-.16-.154-2.071-2.2-2.071-6.9a10.159,10.159,0,0,0-1.088-3.876,33.549,33.549,0,0,0,.789,9.071c.05.136,1.722,5.043-2.3,13.077A1.552,1.552,0,0,1,43.485,32.4Z" transform="translate(1.185 -1)"/><path class="b" d="M65.448,39.041a1.557,1.557,0,0,1-.813-2.885c.14-.093,2.446-1.7,1-6.37-.09-.333-1.788-6.794-.64-10.921l.053-.162a5.4,5.4,0,0,0-.082-3.139,13.244,13.244,0,0,0-1.516,4.344v.721l-.552.47c-.07.059-7.033,6.049-4.593,11.8a1.558,1.558,0,1,1-2.868,1.217c-2.911-6.86,3.117-13.226,4.956-14.953.4-2.836,2.791-6.943,3.3-7.8l1.249-2.081,1.371,2c2.889,4.226,1.9,7.774,1.667,8.458-.74,2.754.213,7.551.646,9.178,2.2,7.1-2.2,9.793-2.392,9.9A1.541,1.541,0,0,1,65.448,39.041Z" transform="translate(2.555 -0.109)"/><path class="b" d="M37.886,48.529c-.138,0-.277,0-.419-.009L36.96,48.5l-.4-.317C36.4,48.05,32.6,44.922,34.6,38.938l.306-.922.976-.131a7.138,7.138,0,0,1,.86-.043,10.2,10.2,0,0,1,8.58,4.491l.49.733-.378.8A8.572,8.572,0,0,1,37.886,48.529Zm-.616-7.552a5.176,5.176,0,0,0,.914,4.429,5.3,5.3,0,0,0,3.944-2.123A7.111,7.111,0,0,0,37.27,40.978Z" transform="translate(0.334 2.965)"/><path class="b" d="M37.775,46.81c-1.681,0-3.011-1.465-3.164-3.482a3.459,3.459,0,0,1,2.838-3.92l.588-.091.5.322c.441.286,2.642,1.812,2.654,3.877a3.153,3.153,0,0,1-1.592,2.7A3.258,3.258,0,0,1,37.775,46.81Zm-.064-3.828a1.505,1.505,0,0,0,.146.637,1,1,0,0,0,.239-.188A2.5,2.5,0,0,0,37.711,42.982Z" transform="translate(0.396 3.124)"/><path class="b" d="M48.468,30.454a1.54,1.54,0,0,1-.934-.312,1.556,1.556,0,0,1-.31-2.181c3.016-4.021.722-6.079.7-6.1-.379-.316-1.741-1.768-2.507-6.474-.634-3.888-1.81-5.43-1.82-5.445a1.566,1.566,0,0,1,.24-2.18,1.547,1.547,0,0,1,2.167.2c.172.207,1.711,2.16,2.487,6.92.591,3.634,1.512,4.655,1.521,4.665,1.522,1.31,3.5,5.219-.3,10.277A1.547,1.547,0,0,1,48.468,30.454Z" transform="translate(1.329 -0.31)"/></g></g></g></svg>