<svg xmlns="http://www.w3.org/2000/svg" width="39" height="40" viewBox="0 0 39 40"><defs><style>.a{fill:none;}.b,.c{fill:#a1a1a1;}.c{font-size:10px;font-family:Roboto-Regular, Roboto;}</style></defs><g transform="translate(-233 -766)"><g transform="translate(242 771)"><path class="a" d="M0,0H21.972V24H0Z"/><path class="b" d="M21.31,22.25H6.662v-2.7H21.31Zm0-5.4H6.662v-2.7H21.31Zm0-5.4H6.662V8.75H21.31ZM3,29l1.831-2.025L6.662,29l1.831-2.025L10.324,29l1.831-2.025L13.986,29l1.831-2.025L17.648,29l1.831-2.025L21.31,29l1.831-2.025L24.972,29V2L23.141,4.025,21.31,2,19.479,4.025,17.648,2,15.817,4.025,13.986,2,12.155,4.025,10.324,2,8.493,4.025,6.662,2,4.831,4.025,3,2Z" transform="translate(-3 -7)"/></g><text class="c" transform="translate(233 793)"><tspan x="0" y="10">Pedidos</tspan></text></g></svg>